PathFileType	4	(X/Y/Z)	 s03c0203.trc
DataRate	CameraRate	NumFrames	NumMarkers	Units	OrigDataRate	OrigDataStartFrame	OrigNumFrames
200	200	4	50	mm	200	251	2000
Frame#	Time	racr			lacr			c7			jug			rlel			rdr			llel			ldr			s2			lic			ric			lasi			rasi			rpsi			lpsi			rgt			lgt			rth1			rth2			rth3			rth4			rlfc			rmfc			rsh1			rsh2			rsh3			rsh4			rlmal			rcal			rtoe			rmt5			rmt1			lth1			lth2			lth4			lth3			llfc			lmfc			lsh1			lsh2			lsh3			lsh4			llmal			lcal			ltoe			lmt1			lmt5			SBIKE			LBIKE			RBIKE			
		X1	Y1	Z1	X2	Y2	Z2	X3	Y3	Z3	X4	Y4	Z4	X5	Y5	Z5	X6	Y6	Z6	X7	Y7	Z7	X8	Y8	Z8	X9	Y9	Z9	X10	Y10	Z10	X11	Y11	Z11	X12	Y12	Z12	X13	Y13	Z13	X14	Y14	Z14	X15	Y15	Z15	X16	Y16	Z16	X17	Y17	Z17	X18	Y18	Z18	X19	Y19	Z19	X20	Y20	Z20	X21	Y21	Z21	X22	Y22	Z22	X23	Y23	Z23	X24	Y24	Z24	X25	Y25	Z25	X26	Y26	Z26	X27	Y27	Z27	X28	Y28	Z28	X29	Y29	Z29	X30	Y30	Z30	X31	Y31	Z31	X32	Y32	Z32	X33	Y33	Z33	X34	Y34	Z34	X35	Y35	Z35	X36	Y36	Z36	X37	Y37	Z37	X38	Y38	Z38	X39	Y39	Z39	X40	Y40	Z40	X41	Y41	Z41	X42	Y42	Z42	X43	Y43	Z43	X44	Y44	Z44	X45	Y45	Z45	X46	Y46	Z46	X47	Y47	Z47	X48	Y48	Z48	X49	Y49	Z49	X50	Y50	Z50	
251	1.2550	458.498838	1442.259981	-60.456257	459.053701	1468.870509	-373.646489	376.946248	1524.206287	-216.228007	427.519951	1358.326527	-217.350588	512.670880	1175.909168	34.546749	736.223382	984.903208	-3.261943	526.501823	1203.589135	-447.940371	732.991026	980.483288	-418.623297	-118.651124	1208.422568	-246.116446	75.932251	1216.953108	-421.200774	46.003022	1235.359563	-51.939772	88.480846	1138.122833	-380.189149	62.312058	1173.646545	-95.623204	-91.451210	1259.057732	-200.839097	-79.332233	1254.296901	-283.665848	-15.090555	1155.708656	-36.749506	5.734533	1107.725009	-438.586640	110.083550	1073.493137	-14.559350	199.069942	1074.302461	-11.044610	275.517982	1033.397991	-10.607184	208.350814	1107.419916	-25.712188	396.682927	972.763785	-29.191476	409.133255	959.829796	-153.010168	338.755247	816.674736	-15.465351	325.794322	730.606351	-34.844841	269.715601	662.230789	-41.719580	354.061131	722.732568	-60.329456	210.028272	544.658660	-69.263968	145.051038	497.855574	-112.935226	454.611180	498.006038	-109.616159	335.548671	477.550293	-40.993079	361.882218	496.052032	-155.137960	77.489180	966.378719	-465.534222	137.909802	903.933569	-469.602976	169.649876	921.883240	-465.097319	160.112762	817.884854	-462.581488	237.730151	711.429505	-448.672705	247.684506	701.155397	-325.565728	149.584713	560.479014	-463.858163	138.792669	478.894512	-444.368764	82.602999	407.365722	-431.602203	168.137073	468.936976	-419.676216	24.647616	295.109581	-404.236442	-44.324336	259.248013	-353.122361	259.045107	201.308508	-357.820982	166.529281	213.309322	-313.876136	136.372751	197.272767	-427.742251	-217.676732	944.966364	-233.068902	-8.007302	83.955233	-437.004802	-13.940384	80.832319	-36.682198	
252	1.2600	458.478833	1442.211257	-60.493564	459.120990	1468.852418	-373.616524	376.976991	1524.189368	-216.249556	427.541156	1358.297652	-217.372433	512.631440	1175.868946	34.563729	736.233335	984.895384	-3.275855	526.493079	1203.600743	-448.007840	732.992575	980.497893	-418.680005	-118.662137	1208.430951	-246.162060	75.953361	1216.919933	-421.207368	46.015396	1235.382201	-51.980037	88.511158	1138.115112	-380.212802	62.320522	1173.662538	-95.670216	-91.453246	1259.075925	-200.878320	-79.328035	1254.293663	-283.702757	-15.101984	1155.725078	-36.780623	5.742957	1107.708223	-438.608702	110.081588	1073.520990	-14.576399	199.057141	1074.328330	-11.050580	275.488078	1033.449825	-10.615161	208.334638	1107.460754	-25.728379	396.656074	972.796428	-29.171738	409.122404	959.842685	-152.967776	338.777563	816.693706	-15.453428	325.811955	730.631333	-34.836000	269.737955	662.238400	-41.699459	354.098824	722.771871	-60.307062	210.067215	544.658848	-69.261029	145.092497	497.852027	-112.948933	454.638486	497.983559	-109.608952	335.575051	477.535635	-40.978410	361.917956	496.031410	-155.142821	77.496943	966.380098	-465.565066	137.927470	903.937929	-469.632723	169.654596	921.893208	-465.129868	160.153528	817.884536	-462.603316	237.757742	711.451540	-448.695404	247.714709	701.155739	-325.594954	149.618250	560.502303	-463.860496	138.791285	478.916839	-444.362539	82.603155	407.385458	-431.601207	168.146399	468.936943	-419.695748	24.649906	295.134574	-404.227490	-44.333187	259.274452	-353.126028	259.033179	201.312450	-357.829763	166.511605	213.310845	-313.888260	136.348010	197.289713	-427.733181	-217.681671	944.963667	-233.074187	-8.012854	83.962633	-437.000965	-13.940959	80.816503	-36.686936	
253	1.2650	458.522306	1442.172619	-60.506488	459.157624	1468.841957	-373.577459	376.970513	1524.173736	-216.200593	427.557329	1358.283408	-217.357993	512.576863	1175.815447	34.587895	736.218117	984.904556	-3.307476	526.500660	1203.591013	-448.041807	733.013018	980.499232	-418.749295	-118.644956	1208.429547	-246.207568	75.989833	1216.906540	-421.223604	46.009095	1235.381714	-52.018579	88.530866	1138.091720	-380.271105	62.294976	1173.664063	-95.675703	-91.451212	1259.066591	-200.923045	-79.288767	1254.304923	-283.758537	-15.118101	1155.745080	-36.791462	5.760473	1107.692416	-438.627092	110.072583	1073.578465	-14.596800	199.022100	1074.412204	-11.059719	275.475131	1033.492312	-10.610128	208.303381	1107.500823	-25.731840	396.655950	972.829246	-29.169439	409.113276	959.841062	-152.937119	338.799122	816.692742	-15.445338	325.824143	730.626880	-34.839380	269.771336	662.243606	-41.695688	354.130101	722.774791	-60.321547	210.118870	544.672743	-69.252527	145.145094	497.883964	-112.951027	454.683306	497.958031	-109.622393	335.604018	477.526514	-40.985170	361.955605	496.020382	-155.126424	77.515187	966.384981	-465.596030	137.949286	903.940247	-469.662744	169.667956	921.908888	-465.146762	160.176339	817.895834	-462.641469	237.800044	711.453698	-448.742949	247.752549	701.177282	-325.611772	149.635540	560.527788	-463.889951	138.832144	479.076916	-444.507451	82.606399	407.435098	-431.621789	168.153014	468.963992	-419.708100	24.643716	295.188653	-404.234340	-44.347563	259.329646	-353.120096	259.012073	201.302424	-357.827711	166.504750	213.336249	-313.878230	136.336057	197.309063	-427.716522	-217.677408	944.963236	-233.090507	-8.010906	83.966397	-437.010391	-13.951457	80.829984	-36.683617	
254	1.2700	458.527349	1442.147232	-60.512959	459.195893	1468.845283	-373.569097	377.003628	1524.149116	-216.216312	427.593526	1358.260694	-217.359640	512.545588	1175.751988	34.605038	736.210163	984.919450	-3.329733	526.486340	1203.584118	-448.107694	733.018958	980.509643	-418.810229	-118.646068	1208.409306	-246.210317	75.988778	1216.878581	-421.220207	46.002121	1235.396520	-52.035024	88.536460	1138.094943	-380.282772	62.271876	1173.705462	-95.686085	-91.425165	1259.073331	-200.984456	-79.276485	1254.299659	-283.808696	-15.130489	1155.775077	-36.819370	5.755688	1107.683052	-438.658369	110.059976	1073.618555	-14.605179	198.988951	1074.457307	-11.056029	275.451803	1033.531445	-10.613719	208.282589	1107.541273	-25.746036	396.636479	972.876151	-29.129196	409.112518	959.877521	-152.944299	338.800493	816.725019	-15.420740	325.845181	730.640056	-34.821739	269.813103	662.244886	-41.698627	354.145256	722.794863	-60.289114	210.162798	544.686158	-69.245476	145.207749	497.911140	-112.964537	454.722680	497.907158	-109.637322	335.660913	477.515592	-40.981033	362.017641	495.990517	-155.128623	77.520292	966.390506	-465.628430	137.971106	903.967249	-469.681603	169.688799	921.911854	-465.160654	160.201771	817.917562	-462.678610	237.843626	711.490788	-448.760916	247.797870	701.190023	-325.649113	149.664403	560.550240	-463.908998	138.827045	479.099233	-444.516869	82.611735	407.463416	-431.626259	168.303489	468.972661	-419.810557	24.643229	295.263479	-404.219675	-44.356941	259.388654	-353.131461	258.990400	201.327658	-357.829257	166.506745	213.363194	-313.906861	136.314544	197.344678	-427.746042	-217.682136	944.971684	-233.081253	-8.004851	83.960112	-437.000664	-13.951306	80.830982	-36.681814	
